<svg xmlns="http://www.w3.org/2000/svg" xmlns:xlink="http://www.w3.org/1999/xlink" width="40" zoomAndPan="magnify" viewBox="0 0 30 30.000001" height="40" preserveAspectRatio="xMidYMid meet" version="1.0"><defs><clipPath id="id1"><path d="M 0.484375 5.152344 L 24.433594 5.152344 L 24.433594 29.03125 L 0.484375 29.03125 Z M 0.484375 5.152344 " clip-rule="nonzero"/></clipPath></defs><g clip-path="url(#id1)"><path fill="#000000" d="M 21.753906 5.152344 C 17.773438 5.152344 12.429688 7.882812 8.84375 12.582031 L 5.867188 12.582031 C 3.71875 12.582031 2.488281 14.183594 1.640625 15.878906 L 0.503906 18.148438 L 5.867188 18.148438 L 11.4375 23.71875 L 11.4375 29.082031 L 13.710938 27.949219 C 15.40625 27.101562 17.007812 25.871094 17.007812 23.71875 L 17.007812 20.746094 C 21.703125 17.160156 24.4375 11.816406 24.4375 7.835938 L 24.4375 5.152344 Z M 17.007812 10.722656 C 18.035156 10.722656 18.867188 11.554688 18.867188 12.582031 C 18.867188 13.605469 18.035156 14.4375 17.007812 14.4375 C 15.984375 14.4375 15.152344 13.605469 15.152344 12.582031 C 15.152344 11.554688 15.984375 10.722656 17.007812 10.722656 Z M 4.941406 21.863281 L 4.011719 22.792969 C 2.671875 24.132812 2.15625 27.433594 2.15625 27.433594 C 2.15625 27.433594 5.308594 27.066406 6.796875 25.578125 L 7.726562 24.648438 Z M 4.941406 21.863281 " fill-opacity="1" fill-rule="nonzero"/></g></svg>