<svg xmlns="http://www.w3.org/2000/svg" xmlns:xlink="http://www.w3.org/1999/xlink" width="500" zoomAndPan="magnify" viewBox="0 0 375 374.999991" height="500" preserveAspectRatio="xMidYMid meet" version="1.0"><path fill="#000000" d="M 332.996094 0 C 270.664062 0 187.03125 42.761719 130.871094 116.277344 L 84.3125 116.277344 C 50.667969 116.277344 31.386719 141.390625 18.109375 167.945312 L 0.335938 203.488281 L 84.3125 203.488281 L 127.914062 247.09375 L 171.519531 290.699219 L 171.519531 374.671875 L 207.0625 356.902344 C 233.621094 343.621094 258.730469 324.339844 258.730469 290.699219 L 258.730469 244.140625 C 332.246094 187.976562 375.007812 104.34375 375.007812 42.015625 L 375.007812 0 Z M 258.730469 87.210938 C 274.785156 87.210938 287.800781 100.222656 287.800781 116.277344 C 287.800781 132.335938 274.785156 145.347656 258.730469 145.347656 C 242.675781 145.347656 229.660156 132.335938 229.660156 116.277344 C 229.660156 100.222656 242.675781 87.210938 258.730469 87.210938 Z M 69.777344 261.628906 L 55.242188 276.164062 C 34.246094 297.15625 26.171875 348.835938 26.171875 348.835938 C 26.171875 348.835938 75.53125 343.082031 98.847656 319.765625 L 113.378906 305.234375 Z M 69.777344 261.628906 " fill-opacity="1" fill-rule="nonzero"/></svg>